<svg width="379" height="380" viewBox="0 0 379 380" fill="none" xmlns="http://www.w3.org/2000/svg">
<mask id="path-1-inside-1_2033_424" fill="white">
<path d="M341 190C341 272.843 273.843 340 191 340C108.157 340 41 272.843 41 190C41 107.157 108.157 40 191 40C273.843 40 341 107.157 341 190ZM116 190C116 231.421 149.579 265 191 265C232.421 265 266 231.421 266 190C266 148.579 232.421 115 191 115C149.579 115 116 148.579 116 190Z"/>
</mask>
<path d="M341 190C341 272.843 273.843 340 191 340C108.157 340 41 272.843 41 190C41 107.157 108.157 40 191 40C273.843 40 341 107.157 341 190ZM116 190C116 231.421 149.579 265 191 265C232.421 265 266 231.421 266 190C266 148.579 232.421 115 191 115C149.579 115 116 148.579 116 190Z" fill="#7C7C7C" stroke="black" stroke-width="2" mask="url(#path-1-inside-1_2033_424)"/>
<g filter="url(#filter0_d_2033_424)">
<mask id="path-2-inside-2_2033_424" fill="white">
<path d="M190.5 40C161.956 40 134.001 48.0904 109.896 63.3271C85.7906 78.5638 66.5301 100.319 54.3614 126.053C42.1927 151.787 37.6177 180.44 41.1701 208.668C44.7225 236.896 56.2559 263.535 74.4245 285.477C92.5931 307.419 116.648 323.759 143.782 332.59C170.916 341.421 200.01 342.38 227.669 335.353C255.329 328.327 280.414 313.606 299.997 292.908C319.579 272.21 332.852 246.388 338.267 218.455L264.384 204.228C261.676 218.194 255.04 231.105 245.248 241.454C235.457 251.803 222.915 259.164 209.085 262.677C195.255 266.19 180.708 265.711 167.141 261.295C153.574 256.879 141.547 248.709 132.462 237.738C123.378 226.768 117.611 213.448 115.835 199.334C114.059 185.22 116.346 170.894 122.431 158.026C128.515 145.159 138.145 134.282 150.198 126.664C162.25 119.045 176.228 115 190.5 115L190.5 40Z"/>
</mask>
<path d="M190.5 40C161.956 40 134.001 48.0904 109.896 63.3271C85.7906 78.5638 66.5301 100.319 54.3614 126.053C42.1927 151.787 37.6177 180.44 41.1701 208.668C44.7225 236.896 56.2559 263.535 74.4245 285.477C92.5931 307.419 116.648 323.759 143.782 332.59C170.916 341.421 200.01 342.38 227.669 335.353C255.329 328.327 280.414 313.606 299.997 292.908C319.579 272.21 332.852 246.388 338.267 218.455L264.384 204.228C261.676 218.194 255.04 231.105 245.248 241.454C235.457 251.803 222.915 259.164 209.085 262.677C195.255 266.19 180.708 265.711 167.141 261.295C153.574 256.879 141.547 248.709 132.462 237.738C123.378 226.768 117.611 213.448 115.835 199.334C114.059 185.22 116.346 170.894 122.431 158.026C128.515 145.159 138.145 134.282 150.198 126.664C162.25 119.045 176.228 115 190.5 115L190.5 40Z" fill="url(#paint0_linear_2033_424)"/>
<path d="M190.5 40C161.956 40 134.001 48.0904 109.896 63.3271C85.7906 78.5638 66.5301 100.319 54.3614 126.053C42.1927 151.787 37.6177 180.44 41.1701 208.668C44.7225 236.896 56.2559 263.535 74.4245 285.477C92.5931 307.419 116.648 323.759 143.782 332.59C170.916 341.421 200.01 342.38 227.669 335.353C255.329 328.327 280.414 313.606 299.997 292.908C319.579 272.21 332.852 246.388 338.267 218.455L264.384 204.228C261.676 218.194 255.04 231.105 245.248 241.454C235.457 251.803 222.915 259.164 209.085 262.677C195.255 266.19 180.708 265.711 167.141 261.295C153.574 256.879 141.547 248.709 132.462 237.738C123.378 226.768 117.611 213.448 115.835 199.334C114.059 185.22 116.346 170.894 122.431 158.026C128.515 145.159 138.145 134.282 150.198 126.664C162.25 119.045 176.228 115 190.5 115L190.5 40Z" stroke="black" stroke-width="2" mask="url(#path-2-inside-2_2033_424)"/>
</g>
<mask id="path-3-outside-3_2033_424" maskUnits="userSpaceOnUse" x="135" y="171" width="111" height="32" fill="black">
<rect fill="white" x="135" y="171" width="111" height="32"/>
<path d="M157.48 172.562V176.078L146.855 201H139.902L150.546 177.641H136.972V172.562H157.48ZM175.168 172.562V201H168.586V179.984L162.101 181.879V176.879L174.562 172.562H175.168ZM184.008 197.914C184.008 196.977 184.346 196.195 185.023 195.57C185.701 194.932 186.573 194.613 187.641 194.613C188.721 194.613 189.594 194.932 190.258 195.57C190.935 196.195 191.273 196.977 191.273 197.914C191.273 198.852 190.935 199.639 190.258 200.277C189.594 200.902 188.721 201.215 187.641 201.215C186.573 201.215 185.701 200.902 185.023 200.277C184.346 199.639 184.008 198.852 184.008 197.914ZM201.266 184.027H204.469C205.289 184.027 205.96 183.884 206.481 183.598C207.015 183.298 207.412 182.882 207.672 182.348C207.933 181.801 208.063 181.156 208.063 180.414C208.063 179.841 207.939 179.314 207.692 178.832C207.457 178.35 207.093 177.966 206.598 177.68C206.103 177.38 205.472 177.23 204.703 177.23C204.183 177.23 203.675 177.341 203.18 177.562C202.685 177.771 202.275 178.07 201.95 178.461C201.637 178.852 201.481 179.327 201.481 179.887H194.879C194.879 178.272 195.322 176.892 196.207 175.746C197.106 174.587 198.284 173.702 199.743 173.09C201.214 172.465 202.796 172.152 204.489 172.152C206.507 172.152 208.278 172.465 209.801 173.09C211.325 173.702 212.509 174.613 213.356 175.824C214.215 177.022 214.645 178.507 214.645 180.277C214.645 181.254 214.417 182.172 213.961 183.031C213.506 183.891 212.868 184.646 212.047 185.297C211.227 185.948 210.263 186.462 209.157 186.84C208.063 187.204 206.865 187.387 205.563 187.387H201.266V184.027ZM201.266 188.93V185.648H205.563C206.982 185.648 208.278 185.811 209.45 186.137C210.621 186.449 211.631 186.918 212.477 187.543C213.323 188.168 213.974 188.943 214.43 189.867C214.886 190.779 215.114 191.827 215.114 193.012C215.114 194.34 214.847 195.525 214.313 196.566C213.779 197.608 213.03 198.487 212.067 199.203C211.103 199.919 209.977 200.466 208.688 200.844C207.399 201.208 205.999 201.391 204.489 201.391C203.304 201.391 202.119 201.234 200.934 200.922C199.749 200.596 198.668 200.102 197.692 199.438C196.715 198.76 195.927 197.901 195.328 196.859C194.743 195.805 194.45 194.548 194.45 193.09H201.051C201.051 193.689 201.214 194.236 201.539 194.73C201.878 195.212 202.327 195.596 202.887 195.883C203.447 196.169 204.052 196.312 204.703 196.312C205.511 196.312 206.194 196.163 206.754 195.863C207.327 195.551 207.763 195.134 208.063 194.613C208.362 194.092 208.512 193.513 208.512 192.875C208.512 191.911 208.349 191.143 208.024 190.57C207.711 189.997 207.249 189.581 206.637 189.32C206.038 189.06 205.315 188.93 204.469 188.93H201.266ZM218.212 179.535V178.031C218.212 176.951 218.446 175.967 218.915 175.082C219.383 174.197 220.08 173.487 221.005 172.953C221.942 172.419 223.088 172.152 224.442 172.152C225.848 172.152 227.014 172.419 227.938 172.953C228.863 173.487 229.553 174.197 230.008 175.082C230.477 175.967 230.712 176.951 230.712 178.031V179.535C230.712 180.59 230.477 181.56 230.008 182.445C229.553 183.331 228.863 184.04 227.938 184.574C227.027 185.108 225.881 185.375 224.501 185.375C223.12 185.375 221.962 185.108 221.024 184.574C220.1 184.04 219.396 183.331 218.915 182.445C218.446 181.56 218.212 180.59 218.212 179.535ZM222.196 178.031V179.535C222.196 179.965 222.281 180.368 222.45 180.746C222.619 181.124 222.873 181.43 223.212 181.664C223.55 181.898 223.973 182.016 224.481 182.016C225.002 182.016 225.425 181.898 225.751 181.664C226.076 181.43 226.317 181.124 226.473 180.746C226.643 180.368 226.727 179.965 226.727 179.535V178.031C226.727 177.589 226.643 177.178 226.473 176.801C226.317 176.41 226.07 176.098 225.731 175.863C225.393 175.629 224.963 175.512 224.442 175.512C223.947 175.512 223.531 175.629 223.192 175.863C222.867 176.098 222.619 176.41 222.45 176.801C222.281 177.178 222.196 177.589 222.196 178.031ZM231.766 195.531V194.027C231.766 192.96 232.001 191.983 232.469 191.098C232.951 190.212 233.654 189.503 234.579 188.969C235.516 188.435 236.669 188.168 238.036 188.168C239.429 188.168 240.588 188.435 241.512 188.969C242.437 189.503 243.127 190.212 243.583 191.098C244.051 191.983 244.286 192.96 244.286 194.027V195.531C244.286 196.599 244.051 197.576 243.583 198.461C243.127 199.346 242.437 200.056 241.512 200.59C240.601 201.124 239.462 201.391 238.094 201.391C236.701 201.391 235.536 201.124 234.598 200.59C233.661 200.056 232.951 199.346 232.469 198.461C232.001 197.576 231.766 196.599 231.766 195.531ZM235.77 194.027V195.531C235.77 195.974 235.868 196.384 236.063 196.762C236.258 197.139 236.532 197.445 236.883 197.68C237.235 197.914 237.632 198.031 238.075 198.031C238.687 198.031 239.149 197.914 239.462 197.68C239.787 197.445 240.008 197.139 240.126 196.762C240.243 196.384 240.301 195.974 240.301 195.531V194.027C240.301 193.585 240.217 193.174 240.048 192.797C239.891 192.419 239.644 192.113 239.305 191.879C238.967 191.645 238.544 191.527 238.036 191.527C237.528 191.527 237.105 191.645 236.766 191.879C236.428 192.113 236.174 192.419 236.005 192.797C235.848 193.174 235.77 193.585 235.77 194.027ZM239.559 176.645L225.673 198.871L222.762 197.367L236.649 175.141L239.559 176.645Z"/>
</mask>
<path d="M157.48 172.562V176.078L146.855 201H139.902L150.546 177.641H136.972V172.562H157.48ZM175.168 172.562V201H168.586V179.984L162.101 181.879V176.879L174.562 172.562H175.168ZM184.008 197.914C184.008 196.977 184.346 196.195 185.023 195.57C185.701 194.932 186.573 194.613 187.641 194.613C188.721 194.613 189.594 194.932 190.258 195.57C190.935 196.195 191.273 196.977 191.273 197.914C191.273 198.852 190.935 199.639 190.258 200.277C189.594 200.902 188.721 201.215 187.641 201.215C186.573 201.215 185.701 200.902 185.023 200.277C184.346 199.639 184.008 198.852 184.008 197.914ZM201.266 184.027H204.469C205.289 184.027 205.96 183.884 206.481 183.598C207.015 183.298 207.412 182.882 207.672 182.348C207.933 181.801 208.063 181.156 208.063 180.414C208.063 179.841 207.939 179.314 207.692 178.832C207.457 178.35 207.093 177.966 206.598 177.68C206.103 177.38 205.472 177.23 204.703 177.23C204.183 177.23 203.675 177.341 203.18 177.562C202.685 177.771 202.275 178.07 201.95 178.461C201.637 178.852 201.481 179.327 201.481 179.887H194.879C194.879 178.272 195.322 176.892 196.207 175.746C197.106 174.587 198.284 173.702 199.743 173.09C201.214 172.465 202.796 172.152 204.489 172.152C206.507 172.152 208.278 172.465 209.801 173.09C211.325 173.702 212.509 174.613 213.356 175.824C214.215 177.022 214.645 178.507 214.645 180.277C214.645 181.254 214.417 182.172 213.961 183.031C213.506 183.891 212.868 184.646 212.047 185.297C211.227 185.948 210.263 186.462 209.157 186.84C208.063 187.204 206.865 187.387 205.563 187.387H201.266V184.027ZM201.266 188.93V185.648H205.563C206.982 185.648 208.278 185.811 209.45 186.137C210.621 186.449 211.631 186.918 212.477 187.543C213.323 188.168 213.974 188.943 214.43 189.867C214.886 190.779 215.114 191.827 215.114 193.012C215.114 194.34 214.847 195.525 214.313 196.566C213.779 197.608 213.03 198.487 212.067 199.203C211.103 199.919 209.977 200.466 208.688 200.844C207.399 201.208 205.999 201.391 204.489 201.391C203.304 201.391 202.119 201.234 200.934 200.922C199.749 200.596 198.668 200.102 197.692 199.438C196.715 198.76 195.927 197.901 195.328 196.859C194.743 195.805 194.45 194.548 194.45 193.09H201.051C201.051 193.689 201.214 194.236 201.539 194.73C201.878 195.212 202.327 195.596 202.887 195.883C203.447 196.169 204.052 196.312 204.703 196.312C205.511 196.312 206.194 196.163 206.754 195.863C207.327 195.551 207.763 195.134 208.063 194.613C208.362 194.092 208.512 193.513 208.512 192.875C208.512 191.911 208.349 191.143 208.024 190.57C207.711 189.997 207.249 189.581 206.637 189.32C206.038 189.06 205.315 188.93 204.469 188.93H201.266ZM218.212 179.535V178.031C218.212 176.951 218.446 175.967 218.915 175.082C219.383 174.197 220.08 173.487 221.005 172.953C221.942 172.419 223.088 172.152 224.442 172.152C225.848 172.152 227.014 172.419 227.938 172.953C228.863 173.487 229.553 174.197 230.008 175.082C230.477 175.967 230.712 176.951 230.712 178.031V179.535C230.712 180.59 230.477 181.56 230.008 182.445C229.553 183.331 228.863 184.04 227.938 184.574C227.027 185.108 225.881 185.375 224.501 185.375C223.12 185.375 221.962 185.108 221.024 184.574C220.1 184.04 219.396 183.331 218.915 182.445C218.446 181.56 218.212 180.59 218.212 179.535ZM222.196 178.031V179.535C222.196 179.965 222.281 180.368 222.45 180.746C222.619 181.124 222.873 181.43 223.212 181.664C223.55 181.898 223.973 182.016 224.481 182.016C225.002 182.016 225.425 181.898 225.751 181.664C226.076 181.43 226.317 181.124 226.473 180.746C226.643 180.368 226.727 179.965 226.727 179.535V178.031C226.727 177.589 226.643 177.178 226.473 176.801C226.317 176.41 226.07 176.098 225.731 175.863C225.393 175.629 224.963 175.512 224.442 175.512C223.947 175.512 223.531 175.629 223.192 175.863C222.867 176.098 222.619 176.41 222.45 176.801C222.281 177.178 222.196 177.589 222.196 178.031ZM231.766 195.531V194.027C231.766 192.96 232.001 191.983 232.469 191.098C232.951 190.212 233.654 189.503 234.579 188.969C235.516 188.435 236.669 188.168 238.036 188.168C239.429 188.168 240.588 188.435 241.512 188.969C242.437 189.503 243.127 190.212 243.583 191.098C244.051 191.983 244.286 192.96 244.286 194.027V195.531C244.286 196.599 244.051 197.576 243.583 198.461C243.127 199.346 242.437 200.056 241.512 200.59C240.601 201.124 239.462 201.391 238.094 201.391C236.701 201.391 235.536 201.124 234.598 200.59C233.661 200.056 232.951 199.346 232.469 198.461C232.001 197.576 231.766 196.599 231.766 195.531ZM235.77 194.027V195.531C235.77 195.974 235.868 196.384 236.063 196.762C236.258 197.139 236.532 197.445 236.883 197.68C237.235 197.914 237.632 198.031 238.075 198.031C238.687 198.031 239.149 197.914 239.462 197.68C239.787 197.445 240.008 197.139 240.126 196.762C240.243 196.384 240.301 195.974 240.301 195.531V194.027C240.301 193.585 240.217 193.174 240.048 192.797C239.891 192.419 239.644 192.113 239.305 191.879C238.967 191.645 238.544 191.527 238.036 191.527C237.528 191.527 237.105 191.645 236.766 191.879C236.428 192.113 236.174 192.419 236.005 192.797C235.848 193.174 235.77 193.585 235.77 194.027ZM239.559 176.645L225.673 198.871L222.762 197.367L236.649 175.141L239.559 176.645Z" fill="white"/>
<path d="M157.48 172.562H158.48V171.562H157.48V172.562ZM157.48 176.078L158.4 176.47L158.48 176.282V176.078H157.48ZM146.855 201V202H147.516L147.775 201.392L146.855 201ZM139.902 201L138.992 200.585L138.347 202H139.902V201ZM150.546 177.641L151.456 178.055L152.101 176.641H150.546V177.641ZM136.972 177.641H135.972V178.641H136.972V177.641ZM136.972 172.562V171.562H135.972V172.562H136.972ZM156.48 172.562V176.078H158.48V172.562H156.48ZM156.56 175.686L145.935 200.608L147.775 201.392L158.4 176.47L156.56 175.686ZM146.855 200H139.902V202H146.855V200ZM140.812 201.415L151.456 178.055L149.636 177.226L138.992 200.585L140.812 201.415ZM150.546 176.641H136.972V178.641H150.546V176.641ZM137.972 177.641V172.562H135.972V177.641H137.972ZM136.972 173.562H157.48V171.562H136.972V173.562ZM175.168 172.562H176.168V171.562H175.168V172.562ZM175.168 201V202H176.168V201H175.168ZM168.586 201H167.586V202H168.586V201ZM168.586 179.984H169.586V178.65L168.305 179.025L168.586 179.984ZM162.101 181.879H161.101V183.213L162.382 182.839L162.101 181.879ZM162.101 176.879L161.774 175.934L161.101 176.167V176.879H162.101ZM174.562 172.562V171.562H174.394L174.235 171.618L174.562 172.562ZM174.168 172.562V201H176.168V172.562H174.168ZM175.168 200H168.586V202H175.168V200ZM169.586 201V179.984H167.586V201H169.586ZM168.305 179.025L161.821 180.919L162.382 182.839L168.866 180.944L168.305 179.025ZM163.101 181.879V176.879H161.101V181.879H163.101ZM162.429 177.824L174.89 173.507L174.235 171.618L161.774 175.934L162.429 177.824ZM174.562 173.562H175.168V171.562H174.562V173.562ZM185.023 195.57L185.702 196.305L185.709 196.298L185.023 195.57ZM190.258 195.57L189.565 196.291L189.572 196.298L189.58 196.305L190.258 195.57ZM190.258 200.277L190.943 201.006L190.944 201.005L190.258 200.277ZM185.023 200.277L184.338 201.005L184.345 201.012L185.023 200.277ZM185.008 197.914C185.008 197.25 185.234 196.737 185.702 196.305L184.345 194.836C183.459 195.654 183.008 196.703 183.008 197.914H185.008ZM185.709 196.298C186.173 195.861 186.787 195.613 187.641 195.613V193.613C186.358 193.613 185.228 194.004 184.338 194.843L185.709 196.298ZM187.641 195.613C188.511 195.613 189.119 195.863 189.565 196.291L190.951 194.849C190.068 194.002 188.932 193.613 187.641 193.613V195.613ZM189.58 196.305C190.048 196.737 190.273 197.25 190.273 197.914H192.273C192.273 196.703 191.822 195.654 190.936 194.836L189.58 196.305ZM190.273 197.914C190.273 198.578 190.047 199.102 189.572 199.55L190.944 201.005C191.823 200.177 192.273 199.125 192.273 197.914H190.273ZM189.572 199.549C189.127 199.968 188.517 200.215 187.641 200.215V202.215C188.926 202.215 190.06 201.837 190.943 201.006L189.572 199.549ZM187.641 200.215C186.782 200.215 186.165 199.97 185.702 199.543L184.345 201.012C185.236 201.835 186.364 202.215 187.641 202.215V200.215ZM185.709 199.55C185.234 199.102 185.008 198.578 185.008 197.914H183.008C183.008 199.125 183.458 200.177 184.338 201.005L185.709 199.55ZM201.266 184.027V183.027H200.266V184.027H201.266ZM206.481 183.598L206.963 184.474L206.97 184.47L206.481 183.598ZM207.672 182.348L208.571 182.786L208.575 182.778L207.672 182.348ZM207.692 178.832L206.792 179.269L206.797 179.279L206.802 179.289L207.692 178.832ZM206.598 177.68L206.08 178.535L206.089 178.54L206.097 178.545L206.598 177.68ZM203.18 177.562L203.568 178.484L203.578 178.48L203.588 178.475L203.18 177.562ZM201.95 178.461L201.181 177.821L201.175 177.828L201.169 177.836L201.95 178.461ZM201.481 179.887V180.887H202.481V179.887H201.481ZM194.879 179.887H193.879V180.887H194.879V179.887ZM196.207 175.746L195.417 175.133L195.416 175.135L196.207 175.746ZM199.743 173.09L200.129 174.012L200.133 174.01L199.743 173.09ZM209.801 173.09L209.422 174.015L209.428 174.018L209.801 173.09ZM213.356 175.824L212.536 176.397L212.543 176.407L213.356 175.824ZM213.961 183.031L214.845 183.5L213.961 183.031ZM209.157 186.84L209.473 187.789L209.479 187.786L209.157 186.84ZM201.266 187.387H200.266V188.387H201.266V187.387ZM201.266 188.93H200.266V189.93H201.266V188.93ZM201.266 185.648V184.648H200.266V185.648H201.266ZM209.45 186.137L209.182 187.1L209.192 187.103L209.45 186.137ZM214.43 189.867L213.533 190.309L213.536 190.314L214.43 189.867ZM214.313 196.566L213.423 196.11L214.313 196.566ZM208.688 200.844L208.96 201.806L208.969 201.803L208.688 200.844ZM200.934 200.922L200.669 201.886L200.679 201.889L200.934 200.922ZM197.692 199.438L197.122 200.259L197.129 200.264L197.692 199.438ZM195.328 196.859L194.454 197.345L194.458 197.351L194.462 197.358L195.328 196.859ZM194.45 193.09V192.09H193.45V193.09H194.45ZM201.051 193.09H202.051V192.09H201.051V193.09ZM201.539 194.73L200.704 195.28L200.712 195.293L200.721 195.305L201.539 194.73ZM202.887 195.883L202.432 196.773L202.887 195.883ZM206.754 195.863L207.226 196.745L207.233 196.741L206.754 195.863ZM208.024 190.57L207.146 191.049L207.15 191.057L207.154 191.064L208.024 190.57ZM206.637 189.32L206.238 190.237L206.245 190.24L206.637 189.32ZM201.266 185.027H204.469V183.027H201.266V185.027ZM204.469 185.027C205.397 185.027 206.249 184.867 206.963 184.474L205.999 182.721C205.671 182.902 205.182 183.027 204.469 183.027V185.027ZM206.97 184.47C207.676 184.074 208.218 183.509 208.571 182.786L206.773 181.909C206.605 182.254 206.354 182.522 205.992 182.726L206.97 184.47ZM208.575 182.778C208.912 182.07 209.063 181.272 209.063 180.414H207.063C207.063 181.04 206.953 181.532 206.769 181.918L208.575 182.778ZM209.063 180.414C209.063 179.692 208.905 179.007 208.581 178.375L206.802 179.289C206.973 179.621 207.063 179.991 207.063 180.414H209.063ZM208.591 178.395C208.263 177.721 207.754 177.193 207.099 176.814L206.097 178.545C206.432 178.739 206.651 178.979 206.792 179.269L208.591 178.395ZM207.116 176.824C206.422 176.404 205.596 176.23 204.703 176.23V178.23C205.347 178.23 205.785 178.356 206.08 178.535L207.116 176.824ZM204.703 176.23C204.036 176.23 203.39 176.373 202.772 176.65L203.588 178.475C203.96 178.309 204.329 178.23 204.703 178.23V176.23ZM202.792 176.641C202.158 176.908 201.615 177.3 201.181 177.821L202.718 179.101C202.935 178.84 203.212 178.634 203.568 178.484L202.792 176.641ZM201.169 177.836C200.697 178.425 200.481 179.128 200.481 179.887H202.481C202.481 179.525 202.577 179.278 202.73 179.086L201.169 177.836ZM201.481 178.887H194.879V180.887H201.481V178.887ZM195.879 179.887C195.879 178.467 196.264 177.308 196.999 176.358L195.416 175.135C194.38 176.476 193.879 178.078 193.879 179.887H195.879ZM196.998 176.359C197.782 175.347 198.817 174.563 200.129 174.012L199.356 172.168C197.751 172.841 196.429 173.828 195.417 175.133L196.998 176.359ZM200.133 174.01C201.474 173.441 202.922 173.152 204.489 173.152V171.152C202.67 171.152 200.954 171.489 199.352 172.169L200.133 174.01ZM204.489 173.152C206.405 173.152 208.042 173.449 209.422 174.015L210.181 172.165C208.513 171.48 206.608 171.152 204.489 171.152V173.152ZM209.428 174.018C210.792 174.566 211.813 175.363 212.536 176.397L214.175 175.251C213.206 173.864 211.857 172.838 210.174 172.162L209.428 174.018ZM212.543 176.407C213.258 177.403 213.645 178.673 213.645 180.277H215.645C215.645 178.34 215.172 176.641 214.168 175.241L212.543 176.407ZM213.645 180.277C213.645 181.091 213.457 181.848 213.078 182.563L214.845 183.5C215.377 182.495 215.645 181.417 215.645 180.277H213.645ZM213.078 182.563C212.692 183.291 212.146 183.942 211.426 184.514L212.669 186.08C213.589 185.35 214.32 184.49 214.845 183.5L213.078 182.563ZM211.426 184.514C210.705 185.086 209.845 185.548 208.834 185.893L209.479 187.786C210.682 187.376 211.749 186.81 212.669 186.08L211.426 184.514ZM208.84 185.891C207.861 186.218 206.771 186.387 205.563 186.387V188.387C206.959 188.387 208.265 188.191 209.473 187.789L208.84 185.891ZM205.563 186.387H201.266V188.387H205.563V186.387ZM202.266 187.387V184.027H200.266V187.387H202.266ZM202.266 188.93V185.648H200.266V188.93H202.266ZM201.266 186.648H205.563V184.648H201.266V186.648ZM205.563 186.648C206.906 186.648 208.11 186.803 209.182 187.1L209.717 185.173C208.445 184.82 207.058 184.648 205.563 184.648V186.648ZM209.192 187.103C210.261 187.388 211.152 187.807 211.883 188.347L213.071 186.739C212.109 186.028 210.982 185.51 209.707 185.17L209.192 187.103ZM211.883 188.347C212.604 188.88 213.149 189.531 213.533 190.309L215.327 189.425C214.799 188.354 214.043 187.456 213.071 186.739L211.883 188.347ZM213.536 190.314C213.911 191.066 214.114 191.957 214.114 193.012H216.114C216.114 191.697 215.86 190.491 215.324 189.42L213.536 190.314ZM214.114 193.012C214.114 194.203 213.875 195.228 213.423 196.11L215.203 197.022C215.818 195.822 216.114 194.477 216.114 193.012H214.114ZM213.423 196.11C212.961 197.012 212.314 197.773 211.47 198.401L212.663 200.006C213.747 199.201 214.597 198.204 215.203 197.022L213.423 196.11ZM211.47 198.401C210.612 199.038 209.596 199.536 208.407 199.884L208.969 201.803C210.358 201.396 211.594 200.8 212.663 200.006L211.47 198.401ZM208.416 199.881C207.226 200.218 205.919 200.391 204.489 200.391V202.391C206.08 202.391 207.572 202.199 208.96 201.806L208.416 199.881ZM204.489 200.391C203.393 200.391 202.293 200.246 201.189 199.955L200.679 201.889C201.944 202.223 203.215 202.391 204.489 202.391V200.391ZM201.199 199.958C200.116 199.66 199.136 199.21 198.254 198.611L197.129 200.264C198.201 200.993 199.382 201.533 200.669 201.886L201.199 199.958ZM198.261 198.616C197.408 198.024 196.721 197.276 196.195 196.361L194.462 197.358C195.134 198.526 196.022 199.497 197.122 200.259L198.261 198.616ZM196.203 196.374C195.715 195.496 195.45 194.414 195.45 193.09H193.45C193.45 194.683 193.77 196.114 194.454 197.345L196.203 196.374ZM194.45 194.09H201.051V192.09H194.45V194.09ZM200.051 193.09C200.051 193.882 200.27 194.62 200.704 195.28L202.375 194.181C202.158 193.851 202.051 193.496 202.051 193.09H200.051ZM200.721 195.305C201.16 195.929 201.737 196.418 202.432 196.773L203.343 194.993C202.917 194.775 202.596 194.495 202.358 194.156L200.721 195.305ZM202.432 196.773C203.137 197.134 203.9 197.312 204.703 197.312V195.312C204.205 195.312 203.756 195.204 203.343 194.993L202.432 196.773ZM204.703 197.312C205.632 197.312 206.487 197.14 207.226 196.745L206.283 194.981C205.902 195.185 205.39 195.312 204.703 195.312V197.312ZM207.233 196.741C207.953 196.348 208.53 195.806 208.93 195.112L207.196 194.115C206.996 194.462 206.701 194.753 206.275 194.985L207.233 196.741ZM208.93 195.112C209.322 194.43 209.512 193.677 209.512 192.875H207.512C207.512 193.349 207.403 193.755 207.196 194.115L208.93 195.112ZM209.512 192.875C209.512 191.813 209.335 190.854 208.893 190.076L207.154 191.064C207.364 191.433 207.512 192.01 207.512 192.875H209.512ZM208.902 190.091C208.479 189.317 207.843 188.747 207.029 188.4L206.245 190.24C206.655 190.415 206.943 190.678 207.146 191.049L208.902 190.091ZM207.036 188.403C206.28 188.075 205.414 187.93 204.469 187.93V189.93C205.217 189.93 205.796 190.045 206.238 190.237L207.036 188.403ZM204.469 187.93H201.266V189.93H204.469V187.93ZM221.005 172.953L220.51 172.084L220.504 172.087L221.005 172.953ZM230.008 175.082L229.119 175.54L229.125 175.55L230.008 175.082ZM230.008 182.445L229.125 181.977L229.119 181.988L230.008 182.445ZM227.938 184.574L227.438 183.708L227.433 183.711L227.938 184.574ZM221.024 184.574L220.524 185.44L220.529 185.443L221.024 184.574ZM218.915 182.445L218.031 182.913L218.036 182.923L218.915 182.445ZM222.45 180.746L223.362 180.337L222.45 180.746ZM226.473 180.746L225.561 180.337L225.555 180.35L225.549 180.364L226.473 180.746ZM226.473 176.801L225.545 177.172L225.552 177.191L225.561 177.21L226.473 176.801ZM223.192 175.863L222.623 175.041L222.615 175.046L222.608 175.052L223.192 175.863ZM222.45 176.801L223.362 177.21L223.367 177.198L222.45 176.801ZM232.469 191.098L231.591 190.62L231.586 190.63L232.469 191.098ZM234.579 188.969L234.084 188.1L234.079 188.103L234.579 188.969ZM243.583 191.098L242.693 191.555L242.699 191.566L243.583 191.098ZM243.583 198.461L242.699 197.993L242.694 198.003L243.583 198.461ZM241.512 200.59L241.012 199.724L241.007 199.727L241.512 200.59ZM232.469 198.461L231.586 198.929L231.591 198.939L232.469 198.461ZM239.462 197.68L238.877 196.868L238.869 196.874L238.862 196.88L239.462 197.68ZM240.048 192.797L239.123 193.179L239.129 193.193L239.135 193.206L240.048 192.797ZM236.005 192.797L235.092 192.388L235.086 192.401L235.081 192.415L236.005 192.797ZM239.559 176.645L240.407 177.174L240.982 176.254L240.018 175.756L239.559 176.645ZM225.673 198.871L225.213 199.759L226.032 200.183L226.521 199.401L225.673 198.871ZM222.762 197.367L221.914 196.837L221.339 197.757L222.303 198.256L222.762 197.367ZM236.649 175.141L237.108 174.252L236.289 173.829L235.801 174.611L236.649 175.141ZM219.212 179.535V178.031H217.212V179.535H219.212ZM219.212 178.031C219.212 177.1 219.412 176.28 219.798 175.55L218.031 174.614C217.48 175.655 217.212 176.801 217.212 178.031H219.212ZM219.798 175.55C220.173 174.842 220.732 174.265 221.505 173.819L220.504 172.087C219.428 172.709 218.593 173.552 218.031 174.614L219.798 175.55ZM221.499 173.822C222.252 173.393 223.218 173.152 224.442 173.152V171.152C222.958 171.152 221.632 171.445 220.51 172.084L221.499 173.822ZM224.442 173.152C225.727 173.152 226.706 173.397 227.438 173.819L228.438 172.087C227.321 171.442 225.97 171.152 224.442 171.152V173.152ZM227.438 173.819C228.209 174.264 228.758 174.837 229.119 175.54L230.898 174.624C230.348 173.556 229.516 172.71 228.438 172.087L227.438 173.819ZM229.125 175.55C229.511 176.28 229.712 177.1 229.712 178.031H231.712C231.712 176.801 231.443 175.655 230.892 174.614L229.125 175.55ZM229.712 178.031V179.535H231.712V178.031H229.712ZM229.712 179.535C229.712 180.436 229.513 181.244 229.125 181.977L230.892 182.913C231.441 181.876 231.712 180.744 231.712 179.535H229.712ZM229.119 181.988C228.758 182.69 228.209 183.263 227.438 183.708L228.438 185.44C229.516 184.818 230.348 183.971 230.898 182.903L229.119 181.988ZM227.433 183.711C226.715 184.132 225.756 184.375 224.501 184.375V186.375C226.005 186.375 227.339 186.084 228.444 185.437L227.433 183.711ZM224.501 184.375C223.246 184.375 222.269 184.132 221.519 183.705L220.529 185.443C221.654 186.084 222.994 186.375 224.501 186.375V184.375ZM221.524 183.708C220.749 183.261 220.182 182.681 219.793 181.967L218.036 182.923C218.611 183.98 219.45 184.82 220.524 185.44L221.524 183.708ZM219.798 181.977C219.41 181.244 219.212 180.436 219.212 179.535H217.212C217.212 180.744 217.482 181.876 218.031 182.913L219.798 181.977ZM221.196 178.031V179.535H223.196V178.031H221.196ZM221.196 179.535C221.196 180.1 221.308 180.644 221.537 181.155L223.362 180.337C223.253 180.093 223.196 179.829 223.196 179.535H221.196ZM221.537 181.155C221.781 181.698 222.153 182.148 222.642 182.486L223.781 180.842C223.593 180.712 223.457 180.549 223.362 180.337L221.537 181.155ZM222.642 182.486C223.184 182.861 223.818 183.016 224.481 183.016V181.016C224.129 181.016 223.917 180.936 223.781 180.842L222.642 182.486ZM224.481 183.016C225.149 183.016 225.795 182.865 226.335 182.476L225.166 180.853C225.055 180.932 224.855 181.016 224.481 181.016V183.016ZM226.335 182.476C226.814 182.13 227.171 181.675 227.397 181.128L225.549 180.364C225.463 180.573 225.338 180.729 225.166 180.853L226.335 182.476ZM227.386 181.155C227.615 180.644 227.727 180.1 227.727 179.535H225.727C225.727 179.829 225.67 180.093 225.561 180.337L227.386 181.155ZM227.727 179.535V178.031H225.727V179.535H227.727ZM227.727 178.031C227.727 177.458 227.617 176.907 227.386 176.392L225.561 177.21C225.668 177.45 225.727 177.72 225.727 178.031H227.727ZM227.402 176.429C227.174 175.861 226.804 175.39 226.3 175.041L225.162 176.685C225.335 176.806 225.46 176.96 225.545 177.172L227.402 176.429ZM226.3 175.041C225.755 174.664 225.112 174.512 224.442 174.512V176.512C224.813 176.512 225.03 176.594 225.162 176.685L226.3 175.041ZM224.442 174.512C223.786 174.512 223.16 174.669 222.623 175.041L223.761 176.685C223.901 176.589 224.109 176.512 224.442 176.512V174.512ZM222.608 175.052C222.127 175.398 221.769 175.858 221.532 176.403L223.367 177.198C223.47 176.963 223.606 176.797 223.776 176.675L222.608 175.052ZM221.537 176.392C221.306 176.907 221.196 177.458 221.196 178.031H223.196C223.196 177.72 223.255 177.45 223.362 177.21L221.537 176.392ZM232.766 195.531V194.027H230.766V195.531H232.766ZM232.766 194.027C232.766 193.112 232.966 192.297 233.353 191.566L231.586 190.63C231.036 191.669 230.766 192.808 230.766 194.027H232.766ZM233.348 191.576C233.736 190.862 234.304 190.282 235.079 189.835L234.079 188.103C233.005 188.723 232.166 189.563 231.591 190.62L233.348 191.576ZM235.074 189.838C235.825 189.41 236.797 189.168 238.036 189.168V187.168C236.541 187.168 235.207 187.46 234.084 188.1L235.074 189.838ZM238.036 189.168C239.306 189.168 240.279 189.412 241.012 189.835L242.012 188.103C240.896 187.458 239.552 187.168 238.036 187.168V189.168ZM241.012 189.835C241.783 190.28 242.332 190.853 242.694 191.555L244.472 190.64C243.922 189.572 243.091 188.725 242.012 188.103L241.012 189.835ZM242.699 191.566C243.086 192.297 243.286 193.112 243.286 194.027H245.286C245.286 192.808 245.017 191.669 244.466 190.63L242.699 191.566ZM243.286 194.027V195.531H245.286V194.027H243.286ZM243.286 195.531C243.286 196.447 243.086 197.261 242.699 197.993L244.466 198.929C245.017 197.89 245.286 196.751 245.286 195.531H243.286ZM242.694 198.003C242.332 198.706 241.783 199.279 241.012 199.724L242.012 201.456C243.091 200.833 243.922 199.987 244.472 198.919L242.694 198.003ZM241.007 199.727C240.288 200.148 239.335 200.391 238.094 200.391V202.391C239.588 202.391 240.914 202.099 242.018 201.453L241.007 199.727ZM238.094 200.391C236.825 200.391 235.842 200.147 235.093 199.721L234.103 201.459C235.229 202.1 236.577 202.391 238.094 202.391V200.391ZM235.093 199.721C234.306 199.272 233.734 198.693 233.348 197.983L231.591 198.939C232.168 199.999 233.016 200.84 234.103 201.459L235.093 199.721ZM233.353 197.993C232.966 197.261 232.766 196.447 232.766 195.531H230.766C230.766 196.751 231.036 197.89 231.586 198.929L233.353 197.993ZM234.77 194.027V195.531H236.77V194.027H234.77ZM234.77 195.531C234.77 196.127 234.903 196.696 235.175 197.221L236.951 196.302C236.833 196.073 236.77 195.821 236.77 195.531H234.77ZM235.175 197.221C235.448 197.748 235.835 198.183 236.329 198.512L237.438 196.848C237.228 196.708 237.069 196.53 236.951 196.302L235.175 197.221ZM236.329 198.512C236.853 198.861 237.445 199.031 238.075 199.031V197.031C237.82 197.031 237.617 196.967 237.438 196.848L236.329 198.512ZM238.075 199.031C238.789 199.031 239.503 198.899 240.062 198.48L238.862 196.88C238.796 196.929 238.585 197.031 238.075 197.031V199.031ZM240.046 198.491C240.545 198.132 240.898 197.646 241.081 197.058L239.171 196.465C239.119 196.632 239.029 196.759 238.877 196.868L240.046 198.491ZM241.081 197.058C241.231 196.574 241.301 196.063 241.301 195.531H239.301C239.301 195.885 239.255 196.194 239.171 196.465L241.081 197.058ZM241.301 195.531V194.027H239.301V195.531H241.301ZM241.301 194.027C241.301 193.454 241.191 192.903 240.96 192.388L239.135 193.206C239.243 193.446 239.301 193.716 239.301 194.027H241.301ZM240.972 192.415C240.741 191.858 240.37 191.4 239.875 191.057L238.736 192.701C238.918 192.827 239.041 192.981 239.123 193.179L240.972 192.415ZM239.875 191.057C239.333 190.682 238.699 190.527 238.036 190.527V192.527C238.388 192.527 238.6 192.607 238.736 192.701L239.875 191.057ZM238.036 190.527C237.373 190.527 236.738 190.682 236.197 191.057L237.335 192.701C237.471 192.607 237.683 192.527 238.036 192.527V190.527ZM236.197 191.057C235.708 191.395 235.336 191.845 235.092 192.388L236.917 193.206C237.012 192.994 237.148 192.831 237.335 192.701L236.197 191.057ZM235.081 192.415C234.87 192.923 234.77 193.464 234.77 194.027H236.77C236.77 193.705 236.827 193.426 236.929 193.179L235.081 192.415ZM238.711 176.115L224.824 198.341L226.521 199.401L240.407 177.174L238.711 176.115ZM226.132 197.983L223.221 196.479L222.303 198.256L225.213 199.759L226.132 197.983ZM223.61 197.897L237.497 175.67L235.801 174.611L221.914 196.837L223.61 197.897ZM236.19 176.029L239.1 177.533L240.018 175.756L237.108 174.252L236.19 176.029Z" fill="black" mask="url(#path-3-outside-3_2033_424)"/>
<defs>
<filter id="filter0_d_2033_424" x="-0.00012207" y="0" width="378.267" height="380" filterUnits="userSpaceOnUse" color-interpolation-filters="sRGB">
<feFlood flood-opacity="0" result="BackgroundImageFix"/>
<feColorMatrix in="SourceAlpha" type="matrix" values="0 0 0 0 0 0 0 0 0 0 0 0 0 0 0 0 0 0 127 0" result="hardAlpha"/>
<feOffset/>
<feGaussianBlur stdDeviation="20"/>
<feComposite in2="hardAlpha" operator="out"/>
<feColorMatrix type="matrix" values="0 0 0 0 0 0 0 0 0 0 0 0 0 0 0 0 0 0 0.25 0"/>
<feBlend mode="normal" in2="BackgroundImageFix" result="effect1_dropShadow_2033_424"/>
<feBlend mode="normal" in="SourceGraphic" in2="effect1_dropShadow_2033_424" result="shape"/>
</filter>
<linearGradient id="paint0_linear_2033_424" x1="190.5" y1="40" x2="190.5" y2="340" gradientUnits="userSpaceOnUse">
<stop stop-color="#00E3FF"/>
<stop offset="1" stop-color="#9532FF"/>
</linearGradient>
</defs>
</svg>
