<svg width="379" height="380" viewBox="0 0 379 380" fill="none" xmlns="http://www.w3.org/2000/svg">
<g filter="url(#filter0_d_319_669)">
<path d="M190.5 40C161.956 40 134.001 48.0904 109.896 63.3271C85.7906 78.5638 66.5301 100.319 54.3614 126.053C42.1927 151.787 37.6177 180.44 41.1701 208.668C44.7225 236.896 56.2559 263.535 74.4245 285.477C92.5931 307.419 116.648 323.759 143.782 332.59C170.915 341.421 200.01 342.38 227.669 335.353C255.329 328.327 280.414 313.606 299.997 292.908C319.579 272.21 332.852 246.388 338.267 218.455L264.384 204.228C261.676 218.194 255.04 231.105 245.248 241.454C235.457 251.803 222.915 259.164 209.085 262.677C195.255 266.19 180.708 265.711 167.141 261.295C153.574 256.879 141.547 248.709 132.462 237.738C123.378 226.768 117.611 213.448 115.835 199.334C114.059 185.22 116.346 170.894 122.431 158.026C128.515 145.159 138.145 134.282 150.198 126.664C162.25 119.045 176.228 115 190.5 115L190.5 40Z" fill="url(#paint0_linear_319_669)"/>
</g>
<defs>
<filter id="filter0_d_319_669" x="-0.00012207" y="0" width="378.267" height="380" filterUnits="userSpaceOnUse" color-interpolation-filters="sRGB">
<feFlood flood-opacity="0" result="BackgroundImageFix"/>
<feColorMatrix in="SourceAlpha" type="matrix" values="0 0 0 0 0 0 0 0 0 0 0 0 0 0 0 0 0 0 127 0" result="hardAlpha"/>
<feOffset/>
<feGaussianBlur stdDeviation="20"/>
<feComposite in2="hardAlpha" operator="out"/>
<feColorMatrix type="matrix" values="0 0 0 0 0 0 0 0 0 0 0 0 0 0 0 0 0 0 0.25 0"/>
<feBlend mode="normal" in2="BackgroundImageFix" result="effect1_dropShadow_319_669"/>
<feBlend mode="normal" in="SourceGraphic" in2="effect1_dropShadow_319_669" result="shape"/>
</filter>
<linearGradient id="paint0_linear_319_669" x1="190.5" y1="40" x2="190.5" y2="340" gradientUnits="userSpaceOnUse">
<stop stop-color="#00E3FF"/>
<stop offset="1" stop-color="#9532FF"/>
</linearGradient>
</defs>
</svg>
