<svg width="383" height="380" viewBox="0 0 383 380" fill="none" xmlns="http://www.w3.org/2000/svg">
<path d="M160.172 199.117H160.562C161.864 199.117 163.036 198.974 164.078 198.688C165.119 198.401 166.011 197.958 166.754 197.359C167.496 196.747 168.062 195.96 168.453 194.996C168.856 194.02 169.058 192.841 169.058 191.461V185.582C169.058 184.671 168.98 183.883 168.824 183.219C168.668 182.542 168.44 181.982 168.14 181.539C167.841 181.096 167.483 180.771 167.066 180.562C166.649 180.341 166.181 180.23 165.66 180.23C165.139 180.23 164.677 180.38 164.273 180.68C163.882 180.966 163.544 181.357 163.257 181.852C162.984 182.333 162.776 182.88 162.632 183.492C162.489 184.091 162.418 184.697 162.418 185.309C162.418 185.999 162.489 186.643 162.632 187.242C162.789 187.828 163.01 188.342 163.297 188.785C163.596 189.215 163.967 189.553 164.41 189.801C164.866 190.048 165.393 190.172 165.992 190.172C166.591 190.172 167.105 190.068 167.535 189.859C167.978 189.638 168.342 189.352 168.629 189C168.915 188.635 169.123 188.245 169.254 187.828C169.397 187.411 169.462 187.001 169.449 186.598L171.363 188.102C171.363 188.935 171.174 189.755 170.797 190.562C170.419 191.37 169.898 192.105 169.234 192.77C168.57 193.421 167.802 193.941 166.929 194.332C166.07 194.723 165.159 194.918 164.195 194.918C162.906 194.918 161.741 194.69 160.699 194.234C159.67 193.779 158.791 193.128 158.062 192.281C157.333 191.435 156.773 190.426 156.382 189.254C156.005 188.069 155.816 186.754 155.816 185.309C155.816 183.915 156.057 182.607 156.539 181.383C157.021 180.159 157.704 179.085 158.59 178.16C159.475 177.223 160.523 176.487 161.734 175.953C162.945 175.419 164.273 175.152 165.718 175.152C167.086 175.152 168.368 175.413 169.566 175.934C170.764 176.441 171.819 177.19 172.73 178.18C173.642 179.169 174.358 180.387 174.879 181.832C175.399 183.277 175.66 184.931 175.66 186.793V189.059C175.66 191.077 175.412 192.9 174.918 194.527C174.423 196.155 173.72 197.587 172.808 198.824C171.897 200.048 170.816 201.077 169.566 201.91C168.329 202.73 166.955 203.349 165.445 203.766C163.948 204.182 162.359 204.391 160.679 204.391H160.172V199.117ZM198.641 196.168C198.641 197.978 198.211 199.495 197.352 200.719C196.505 201.943 195.333 202.861 193.836 203.473C192.352 204.085 190.659 204.391 188.758 204.391C186.87 204.391 185.171 204.085 183.66 203.473C182.163 202.861 180.978 201.943 180.105 200.719C179.233 199.495 178.797 197.978 178.797 196.168C178.797 194.931 179.044 193.824 179.539 192.848C180.047 191.858 180.75 191.018 181.648 190.328C182.547 189.638 183.595 189.111 184.793 188.746C186.004 188.382 187.312 188.199 188.719 188.199C190.62 188.199 192.319 188.525 193.816 189.176C195.314 189.814 196.492 190.725 197.352 191.91C198.211 193.095 198.641 194.514 198.641 196.168ZM192.02 195.641C192.02 194.859 191.883 194.202 191.609 193.668C191.336 193.121 190.952 192.704 190.457 192.418C189.962 192.132 189.383 191.988 188.719 191.988C188.068 191.988 187.488 192.132 186.98 192.418C186.486 192.704 186.095 193.121 185.809 193.668C185.535 194.202 185.398 194.859 185.398 195.641C185.398 196.396 185.542 197.053 185.828 197.613C186.115 198.16 186.505 198.583 187 198.883C187.508 199.169 188.094 199.312 188.758 199.312C189.422 199.312 189.995 199.169 190.477 198.883C190.971 198.583 191.349 198.16 191.609 197.613C191.883 197.053 192.02 196.396 192.02 195.641ZM198.055 183.16C198.055 184.645 197.658 185.947 196.863 187.066C196.082 188.173 194.988 189.039 193.582 189.664C192.189 190.276 190.581 190.582 188.758 190.582C186.948 190.582 185.333 190.276 183.914 189.664C182.508 189.039 181.401 188.173 180.594 187.066C179.799 185.947 179.402 184.645 179.402 183.16C179.402 181.415 179.799 179.951 180.594 178.766C181.401 177.581 182.508 176.682 183.914 176.07C185.32 175.458 186.922 175.152 188.719 175.152C190.542 175.152 192.156 175.458 193.562 176.07C194.969 176.682 196.069 177.581 196.863 178.766C197.658 179.951 198.055 181.415 198.055 183.16ZM191.473 183.512C191.473 182.835 191.368 182.255 191.16 181.773C190.952 181.279 190.646 180.901 190.242 180.641C189.839 180.367 189.331 180.23 188.719 180.23C188.133 180.23 187.638 180.361 187.234 180.621C186.831 180.882 186.525 181.259 186.316 181.754C186.108 182.236 186.004 182.822 186.004 183.512C186.004 184.189 186.108 184.781 186.316 185.289C186.525 185.797 186.831 186.194 187.234 186.48C187.651 186.767 188.159 186.91 188.758 186.91C189.37 186.91 189.871 186.767 190.262 186.48C190.665 186.194 190.965 185.797 191.16 185.289C191.368 184.781 191.473 184.189 191.473 183.512ZM201.797 182.535V181.031C201.797 179.951 202.032 178.967 202.5 178.082C202.969 177.197 203.672 176.487 204.61 175.953C205.547 175.419 206.713 175.152 208.106 175.152C209.538 175.152 210.723 175.419 211.66 175.953C212.598 176.487 213.295 177.197 213.75 178.082C214.219 178.967 214.453 179.951 214.453 181.031V182.535C214.453 183.59 214.219 184.56 213.75 185.445C213.295 186.331 212.598 187.04 211.66 187.574C210.736 188.108 209.571 188.375 208.164 188.375C206.745 188.375 205.567 188.108 204.629 187.574C203.692 187.04 202.982 186.331 202.5 185.445C202.032 184.56 201.797 183.59 201.797 182.535ZM206.016 181.031V182.535C206.016 182.926 206.094 183.297 206.25 183.648C206.407 184 206.641 184.286 206.953 184.508C207.279 184.716 207.676 184.82 208.145 184.82C208.627 184.82 209.017 184.716 209.317 184.508C209.616 184.286 209.838 184 209.981 183.648C210.137 183.297 210.215 182.926 210.215 182.535V181.031C210.215 180.615 210.137 180.23 209.981 179.879C209.838 179.527 209.61 179.247 209.297 179.039C208.985 178.818 208.588 178.707 208.106 178.707C207.65 178.707 207.266 178.818 206.953 179.039C206.641 179.247 206.407 179.527 206.25 179.879C206.094 180.23 206.016 180.615 206.016 181.031ZM215.293 198.531V197.027C215.293 195.96 215.528 194.983 215.996 194.098C216.478 193.212 217.188 192.503 218.125 191.969C219.076 191.435 220.248 191.168 221.641 191.168C223.073 191.168 224.252 191.435 225.176 191.969C226.114 192.503 226.81 193.212 227.266 194.098C227.735 194.983 227.969 195.96 227.969 197.027V198.531C227.969 199.599 227.735 200.576 227.266 201.461C226.81 202.346 226.12 203.056 225.196 203.59C224.271 204.124 223.106 204.391 221.7 204.391C220.28 204.391 219.095 204.124 218.145 203.59C217.194 203.056 216.478 202.346 215.996 201.461C215.528 200.576 215.293 199.599 215.293 198.531ZM219.532 197.027V198.531C219.532 198.935 219.629 199.312 219.825 199.664C220.02 200.016 220.28 200.302 220.606 200.523C220.931 200.732 221.289 200.836 221.68 200.836C222.279 200.836 222.722 200.732 223.008 200.523C223.308 200.302 223.503 200.016 223.594 199.664C223.698 199.312 223.75 198.935 223.75 198.531V197.027C223.75 196.624 223.672 196.246 223.516 195.895C223.36 195.543 223.125 195.263 222.813 195.055C222.5 194.833 222.11 194.723 221.641 194.723C221.172 194.723 220.782 194.833 220.469 195.055C220.157 195.263 219.922 195.543 219.766 195.895C219.61 196.246 219.532 196.624 219.532 197.027ZM223.282 179.645L209.395 201.871L206.328 200.328L220.215 178.102L223.282 179.645Z" fill="white"/>
<g filter="url(#filter0_d_2033_432)">
<path d="M191.5 40C152.577 40 115.147 54.8326 86.9721 81.4219C58.7974 108.011 42.0397 144.317 40.1741 182.811C38.3085 221.304 51.4783 259.032 76.9522 288.17C102.426 317.308 138.25 335.621 176.994 339.311C215.738 343.001 254.431 331.785 285.047 307.989C315.664 284.192 335.856 249.642 341.435 211.502C347.015 173.362 337.554 134.559 315.015 103.14C292.476 71.7211 258.588 50.0963 220.379 42.7503L205.939 116.375C225.044 120.048 241.988 130.861 253.258 146.57C264.527 162.28 269.257 181.681 266.468 200.751C263.678 219.821 253.582 237.096 238.274 248.994C222.965 260.892 203.619 266.5 184.247 264.655C164.875 262.81 146.963 253.654 134.226 239.085C121.489 224.516 114.904 205.652 115.837 186.405C116.77 167.159 125.149 149.006 139.236 135.711C153.323 122.416 172.038 115 191.5 115L191.5 40Z" fill="url(#paint0_linear_2033_432)"/>
</g>
<defs>
<filter id="filter0_d_2033_432" x="-0.00012207" y="0" width="383.001" height="380" filterUnits="userSpaceOnUse" color-interpolation-filters="sRGB">
<feFlood flood-opacity="0" result="BackgroundImageFix"/>
<feColorMatrix in="SourceAlpha" type="matrix" values="0 0 0 0 0 0 0 0 0 0 0 0 0 0 0 0 0 0 127 0" result="hardAlpha"/>
<feOffset/>
<feGaussianBlur stdDeviation="20"/>
<feComposite in2="hardAlpha" operator="out"/>
<feColorMatrix type="matrix" values="0 0 0 0 0 0 0 0 0 0 0 0 0 0 0 0 0 0 0.25 0"/>
<feBlend mode="normal" in2="BackgroundImageFix" result="effect1_dropShadow_2033_432"/>
<feBlend mode="normal" in="SourceGraphic" in2="effect1_dropShadow_2033_432" result="shape"/>
</filter>
<linearGradient id="paint0_linear_2033_432" x1="191.5" y1="40" x2="191.5" y2="340" gradientUnits="userSpaceOnUse">
<stop stop-color="#00E3FF"/>
<stop offset="1" stop-color="#9532FF"/>
</linearGradient>
</defs>
</svg>
