<svg width="1440" height="220" viewBox="0 0 1440 220" fill="none" xmlns="http://www.w3.org/2000/svg">
<path d="M110.28 160.311C110.28 156.99 109.792 154.012 108.815 151.375C107.839 148.641 106.032 146.102 103.395 143.758C100.759 141.414 96.9501 139.07 91.9696 136.727C87.0868 134.285 80.6415 131.746 72.6337 129.109C63.2587 125.984 54.2255 122.469 45.5341 118.562C36.8427 114.559 29.079 109.92 22.243 104.646C15.4071 99.2754 9.98718 93.0254 5.98328 85.8965C1.97937 78.6699 -0.022583 70.2715 -0.022583 60.7012C-0.022583 51.5215 2.0282 43.2695 6.12976 35.9453C10.2313 28.5234 15.9442 22.2246 23.2684 17.0488C30.6903 11.7754 39.3817 7.77148 49.3427 5.03711C59.3036 2.20508 70.1923 0.789062 82.0087 0.789062C97.6337 0.789062 111.403 3.52344 123.317 8.99219C135.329 14.3633 144.704 22.0293 151.442 31.9902C158.278 41.8535 161.696 53.5234 161.696 67H110.573C110.573 61.6289 109.45 56.8926 107.204 52.791C105.056 48.6895 101.784 45.4668 97.3895 43.123C92.995 40.7793 87.4774 39.6074 80.8368 39.6074C74.3915 39.6074 68.9716 40.584 64.577 42.5371C60.1825 44.4902 56.8622 47.127 54.6161 50.4473C52.37 53.6699 51.2469 57.2344 51.2469 61.1406C51.2469 64.3633 52.1259 67.293 53.8837 69.9297C55.7391 72.4688 58.327 74.8613 61.6473 77.1074C65.0653 79.3535 69.1669 81.502 73.952 83.5527C78.8348 85.6035 84.3036 87.6055 90.3583 89.5586C101.686 93.1719 111.745 97.2246 120.534 101.717C129.421 106.111 136.891 111.141 142.946 116.805C149.099 122.371 153.737 128.719 156.862 135.848C160.085 142.977 161.696 151.033 161.696 160.018C161.696 169.588 159.841 178.084 156.13 185.506C152.419 192.928 147.097 199.227 140.163 204.402C133.229 209.48 124.929 213.338 115.261 215.975C105.593 218.611 94.8016 219.93 82.8876 219.93C71.9501 219.93 61.1591 218.562 50.5145 215.828C39.9677 212.996 30.3973 208.699 21.8036 202.938C13.2098 197.078 6.32507 189.607 1.14929 180.525C-3.92883 171.346 -6.4679 160.457 -6.4679 147.859H45.0946C45.0946 154.109 45.9247 159.383 47.5848 163.68C49.245 167.977 51.6864 171.443 54.9091 174.08C58.1317 176.619 62.0868 178.475 66.7743 179.646C71.4618 180.721 76.8329 181.258 82.8876 181.258C89.4305 181.258 94.704 180.33 98.7079 178.475C102.712 176.521 105.641 173.982 107.497 170.857C109.352 167.635 110.28 164.119 110.28 160.311ZM272.997 144.637H219.97V104.939H272.997C280.224 104.939 286.083 103.719 290.575 101.277C295.068 98.8359 298.339 95.4668 300.39 91.1699C302.538 86.7754 303.612 81.8438 303.612 76.375C303.612 70.5156 302.538 65.0957 300.39 60.1152C298.339 55.1348 295.068 51.1309 290.575 48.1035C286.083 44.9785 280.224 43.416 272.997 43.416H239.306V217H187.89V3.71875H272.997C290.087 3.71875 304.784 6.84375 317.089 13.0938C329.491 19.3438 339.013 27.9375 345.654 38.875C352.294 49.7148 355.614 62.1172 355.614 76.082C355.614 89.8516 352.294 101.863 345.654 112.117C339.013 122.371 329.491 130.379 317.089 136.141C304.784 141.805 290.087 144.637 272.997 144.637ZM563.449 106.111V114.754C563.449 131.062 561.154 145.711 556.564 158.699C552.072 171.59 545.675 182.625 537.375 191.805C529.074 200.887 519.259 207.869 507.931 212.752C496.603 217.537 484.103 219.93 470.431 219.93C456.662 219.93 444.064 217.537 432.638 212.752C421.31 207.869 411.447 200.887 403.048 191.805C394.748 182.625 388.302 171.59 383.712 158.699C379.22 145.711 376.974 131.062 376.974 114.754V106.111C376.974 89.8027 379.22 75.1543 383.712 62.166C388.302 49.1777 394.699 38.1426 402.902 29.0605C411.203 19.8809 421.017 12.8984 432.345 8.11328C443.771 3.23047 456.369 0.789062 470.138 0.789062C483.81 0.789062 496.31 3.23047 507.638 8.11328C519.064 12.8984 528.927 19.8809 537.228 29.0605C545.529 38.1426 551.974 49.1777 556.564 62.166C561.154 75.1543 563.449 89.8027 563.449 106.111ZM511.3 114.754V105.818C511.3 95.2715 510.373 85.9941 508.517 77.9863C506.759 69.8809 504.123 63.0937 500.607 57.625C497.091 52.1563 492.746 48.0547 487.57 45.3203C482.492 42.4883 476.681 41.0723 470.138 41.0723C463.302 41.0723 457.345 42.4883 452.267 45.3203C447.189 48.0547 442.941 52.1563 439.523 57.625C436.105 63.0937 433.517 69.8809 431.759 77.9863C430.099 85.9941 429.269 95.2715 429.269 105.818V114.754C429.269 125.203 430.099 134.48 431.759 142.586C433.517 150.594 436.105 157.381 439.523 162.947C443.039 168.514 447.335 172.713 452.414 175.545C457.589 178.377 463.595 179.793 470.431 179.793C476.974 179.793 482.785 178.377 487.863 175.545C492.941 172.713 497.189 168.514 500.607 162.947C504.123 157.381 506.759 150.594 508.517 142.586C510.373 134.48 511.3 125.203 511.3 114.754ZM589.789 3.71875H673.724C690.131 3.71875 704.388 6.16016 716.498 11.043C728.607 15.9258 737.933 23.1523 744.476 32.7227C751.117 42.293 754.437 54.1094 754.437 68.1719C754.437 80.3789 752.533 90.584 748.724 98.7871C744.916 106.99 739.594 113.777 732.758 119.148C726.019 124.422 718.158 128.768 709.174 132.186L692.328 141.707H621.869L621.576 102.01H673.724C680.267 102.01 685.687 100.838 689.984 98.4941C694.281 96.1504 697.504 92.8301 699.652 88.5332C701.898 84.1387 703.021 78.9141 703.021 72.8594C703.021 66.707 701.898 61.4336 699.652 57.0391C697.406 52.6445 694.086 49.2754 689.691 46.9316C685.394 44.5879 680.072 43.416 673.724 43.416H641.205V217H589.789V3.71875ZM706.537 217L659.369 122.664L713.861 122.371L761.615 214.803V217H706.537ZM881.119 3.71875V217H829.703V3.71875H881.119ZM945.279 3.71875V43.416H767.008V3.71875H945.279ZM1021.42 3.71875V217H970.155V3.71875H1021.42ZM1235.41 3.71875V217H1184.14L1108.7 84.2852V217H1057.29V3.71875H1108.7L1184.14 136.434V3.71875H1235.41ZM1442.07 103.035V190.633C1438.46 194.637 1432.89 198.934 1425.37 203.523C1417.95 208.016 1408.58 211.873 1397.25 215.096C1385.92 218.318 1372.59 219.93 1357.26 219.93C1343.1 219.93 1330.26 217.684 1318.73 213.191C1307.21 208.602 1297.3 201.912 1289 193.123C1280.79 184.236 1274.45 173.396 1269.95 160.604C1265.56 147.713 1263.36 132.967 1263.36 116.365V104.5C1263.36 87.8984 1265.61 73.1523 1270.1 60.2617C1274.59 47.3711 1280.89 36.5312 1289 27.7422C1297.2 18.8555 1306.82 12.1172 1317.85 7.52734C1328.99 2.9375 1341.19 0.642578 1354.48 0.642578C1374.1 0.642578 1390.07 3.76758 1402.38 10.0176C1414.68 16.1699 1424.01 24.7148 1430.35 35.6523C1436.7 46.4922 1440.56 59.041 1441.93 73.2988H1392.56C1391.59 66.2676 1389.73 60.3105 1387 55.4277C1384.36 50.4473 1380.55 46.6875 1375.57 44.1484C1370.59 41.5117 1364.14 40.1934 1356.23 40.1934C1350.08 40.1934 1344.47 41.5117 1339.39 44.1484C1334.41 46.7852 1330.16 50.7891 1326.64 56.1602C1323.13 61.4336 1320.39 68.0742 1318.44 76.082C1316.59 84.0898 1315.66 93.4648 1315.66 104.207V116.365C1315.66 127.01 1316.54 136.336 1318.29 144.344C1320.15 152.352 1322.88 159.041 1326.5 164.412C1330.21 169.686 1334.9 173.689 1340.56 176.424C1346.32 179.061 1353.11 180.379 1360.92 180.379C1366.39 180.379 1371.08 179.939 1374.98 179.061C1378.89 178.084 1382.11 176.912 1384.65 175.545C1387.29 174.08 1389.29 172.713 1390.66 171.443V138.338H1354.92V103.035H1442.07Z" fill="url(#paint0_linear_323_767)" fill-opacity="0.5"/>
<defs>
<linearGradient id="paint0_linear_323_767" x1="720" y1="64" x2="720" y2="217" gradientUnits="userSpaceOnUse">
<stop stop-color="#424242"/>
<stop offset="1" stop-color="white"/>
</linearGradient>
</defs>
</svg>
